<?xml version="1.0" standalone="no"?>
<!DOCTYPE svg PUBLIC "-//W3C//DTD SVG 20010904//EN"
 "http://www.w3.org/TR/2001/REC-SVG-20010904/DTD/svg10.dtd">
<svg version="1.0" xmlns="http://www.w3.org/2000/svg"
 width="1024.000000pt" height="1024.000000pt" viewBox="0 0 1024.000000 1024.000000"
 preserveAspectRatio="xMidYMid meet">

<g transform="translate(0.000000,1024.000000) scale(0.100000,-0.100000)"
fill="#000000" stroke="none">
<path d="M4646 9715 c-44 -15 -91 -57 -113 -100 -9 -16 -20 -68 -24 -114 -9
-103 -41 -161 -113 -206 l-49 -30 -501 -5 c-360 -4 -507 -8 -522 -17 -41 -23
-104 -103 -142 -180 -40 -78 -333 -722 -346 -757 -4 -11 0 -29 9 -42 l15 -24
2286 0 c1556 0 2291 3 2305 10 11 6 19 21 19 37 0 34 -342 782 -389 852 -20
30 -54 68 -75 85 l-38 31 -491 5 c-533 5 -511 3 -575 64 -49 45 -64 81 -73
174 -13 126 -56 190 -148 221 -53 17 -984 15 -1035 -4z m598 -133 c42 -25 68
-64 73 -115 7 -58 -24 -116 -77 -146 -152 -85 -302 115 -179 238 51 52 118 60
183 23z"/>
<path d="M1787 9079 c-90 -21 -177 -92 -219 -177 l-23 -47 0 -4055 0 -4055 23
-47 c31 -63 96 -126 162 -157 l55 -26 3335 0 3335 0 55 26 c65 31 132 96 163
159 l22 45 0 4055 0 4055 -23 47 c-32 65 -94 125 -160 156 l-57 27 -558 3
-557 3 24 -53 c13 -29 61 -135 107 -235 l83 -183 313 0 313 0 0 -3795 0 -3795
-3065 0 -3065 0 0 3795 0 3795 352 2 352 3 103 225 c57 123 103 228 103 232 0
11 -1127 8 -1173 -3z"/>
<path d="M4575 7593 c-12 -2 -216 -199 -455 -438 -239 -239 -439 -435 -445
-435 -5 0 -88 79 -185 175 -166 165 -178 175 -214 175 -30 0 -45 -7 -72 -34
-37 -37 -43 -70 -20 -114 8 -15 121 -133 250 -262 l236 -235 515 515 c484 485
515 518 515 550 0 45 -23 78 -66 96 -18 8 -35 13 -36 13 -2 -1 -12 -4 -23 -6z"/>
<path d="M2830 6750 l0 -680 680 0 680 0 0 362 0 363 -100 -100 -100 -100 0
-157 0 -158 -475 0 -475 0 0 475 0 475 473 -2 472 -3 3 -24 c3 -21 14 -14 103
75 78 77 99 105 99 126 l0 28 -680 0 -680 0 0 -680z"/>
<path d="M4990 6910 l0 -100 1240 0 1240 0 0 100 0 100 -1240 0 -1240 0 0
-100z"/>
<path d="M4990 6445 l0 -105 1240 0 1240 0 0 105 0 105 -1240 0 -1240 0 0
-105z"/>
<path d="M4115 4880 l-440 -440 -176 176 c-157 157 -180 176 -215 181 -33 4
-45 1 -72 -22 -39 -32 -50 -81 -29 -121 9 -16 123 -136 254 -266 l238 -238
502 503 c275 276 506 512 512 524 34 68 -13 143 -90 143 l-43 0 -441 -440z"/>
<path d="M2837 5153 c-4 -3 -7 -309 -7 -680 l0 -673 680 0 680 0 0 362 0 363
-100 -100 -100 -99 -2 -161 -3 -160 -472 -3 -473 -2 0 475 0 475 475 0 475 0
0 -22 c0 -18 20 -3 100 77 79 78 100 106 100 127 l0 28 -673 0 c-371 0 -677
-3 -680 -7z"/>
<path d="M4990 4635 l0 -105 1240 0 1240 0 0 105 0 105 -1240 0 -1240 0 0
-105z"/>
<path d="M4990 4170 l0 -100 1240 0 1240 0 0 100 0 100 -1240 0 -1240 0 0
-100z"/>
<path d="M2837 2883 c-4 -3 -7 -309 -7 -680 l0 -673 680 0 680 0 0 680 0 680
-673 0 c-371 0 -677 -3 -680 -7z m1153 -678 l0 -475 -475 0 -475 0 0 475 0
475 475 0 475 0 0 -475z"/>
<path d="M4990 2360 l0 -100 1240 0 1240 0 0 100 0 100 -1240 0 -1240 0 0
-100z"/>
<path d="M4990 1900 l0 -100 1240 0 1240 0 0 100 0 100 -1240 0 -1240 0 0
-100z"/>
</g>
</svg>
